<svg width="53" height="45" viewBox="0 0 53 45" fill="none" xmlns="http://www.w3.org/2000/svg">
<g clip-path="url(#clip0_5_207)">
<path d="M37.043 12.7223C45.8417 12.7223 53 19.2373 53 27.2456C53 30.0454 52.124 32.7569 50.4639 35.1011C50.7783 38.6174 51.6208 41.2278 52.8442 42.4644C53.0059 42.628 53.0463 42.8781 52.9442 43.0846C52.8532 43.2691 52.6676 43.3826 52.4681 43.3826C52.4437 43.3826 52.4187 43.381 52.3937 43.3772C52.1782 43.3466 47.1741 42.6177 43.5551 40.5059C41.4993 41.3445 39.31 41.7689 37.043 41.7689C28.2443 41.7689 21.086 35.2539 21.086 27.2456C21.086 19.2373 28.2443 12.7223 37.043 12.7223Z" fill="black"/>
</g>
<g clip-path="url(#clip1_5_207)">
<path d="M37.043 17.6498C43.0136 17.6498 47.871 22.0708 47.871 27.5049C47.871 29.4048 47.2765 31.2448 46.1501 32.8355C46.3634 35.2215 46.9351 36.9929 47.7653 37.832C47.875 37.943 47.9024 38.1127 47.8331 38.2529C47.7714 38.378 47.6454 38.4551 47.5101 38.4551C47.4935 38.4551 47.4765 38.454 47.4595 38.4514C47.3134 38.4306 43.9177 37.936 41.4619 36.503C40.0669 37.0721 38.5813 37.3601 37.043 37.3601C31.0725 37.3601 26.2151 32.9391 26.2151 27.5049C26.2151 22.0708 31.0725 17.6498 37.043 17.6498Z" fill="white"/>
</g>
<g clip-path="url(#clip2_5_207)">
<path d="M16.5269 1.80093C7.41394 1.80093 -1.66184e-05 8.54867 -1.66184e-05 16.843C-1.66184e-05 19.7427 0.907309 22.5511 2.62666 24.979C2.30108 28.6209 1.42846 31.3245 0.161396 32.6053C-0.00607647 32.7747 -0.0479446 33.0337 0.0578275 33.2477C0.152031 33.4388 0.344293 33.5563 0.550879 33.5563C0.576221 33.5563 0.602113 33.5546 0.628005 33.5507C0.851118 33.519 6.03395 32.7641 9.78224 30.5769C11.9115 31.4454 14.1789 31.885 16.5269 31.885C25.6398 31.885 33.0537 25.1372 33.0537 16.843C33.0537 8.54867 25.6398 1.80093 16.5269 1.80093Z" fill="black"/>
</g>
<g clip-path="url(#clip3_5_207)">
<path d="M16.5268 6.7285C10.2421 6.7285 5.129 11.3821 5.129 17.1023C5.129 19.1021 5.75474 21.039 6.9405 22.7134C6.71596 25.225 6.11415 27.0896 5.24032 27.9729C5.12482 28.0897 5.09594 28.2684 5.16889 28.4159C5.23386 28.5477 5.36645 28.6288 5.50893 28.6288C5.5264 28.6288 5.54426 28.6276 5.56212 28.6249C5.71599 28.603 9.29035 28.0824 11.8754 26.574C13.3438 27.173 14.9076 27.4761 16.5268 27.4761C22.8116 27.4761 27.9247 22.8225 27.9247 17.1023C27.9247 11.3821 22.8116 6.7285 16.5268 6.7285Z" fill="white"/>
</g>
<defs>
<clipPath id="clip0_5_207">
<rect width="31.914" height="32.2741" fill="white" transform="matrix(-1 0 0 1 53 11.9154)"/>
</clipPath>
<clipPath id="clip1_5_207">
<rect width="21.6559" height="21.9003" fill="white" transform="matrix(-1 0 0 1 47.871 17.1023)"/>
</clipPath>
<clipPath id="clip2_5_207">
<rect width="33.0538" height="33.4267" fill="white" transform="translate(0 0.965271)"/>
</clipPath>
<clipPath id="clip3_5_207">
<rect width="22.7957" height="23.0529" fill="white" transform="translate(5.12903 6.15218)"/>
</clipPath>
</defs>
</svg>
