<svg width="61" height="45" viewBox="0 0 61 45" fill="none" xmlns="http://www.w3.org/2000/svg">
<path d="M36.4483 31.4838C36.4483 31.4838 30.1739 34.2194 22.4341 34.2194C14.6942 34.2194 8.41986 31.4838 8.41986 31.4838C8.41986 23.4763 14.6942 16.9849 22.4341 16.9849C30.1739 16.9849 36.4483 23.4763 36.4483 31.4838Z" fill="black"/>
<ellipse cx="6.01333" cy="6.4157" rx="6.01333" ry="6.4157" transform="matrix(-1 0 0 1 36.4558 2.63664)" fill="black"/>
<ellipse cx="6.01333" cy="6.4157" rx="6.01333" ry="6.4157" transform="matrix(-1 0 0 1 22.1741 2.63664)" fill="black"/>
<line y1="-3.5" x2="7.80104" y2="-3.5" transform="matrix(-0.0338954 0.999425 -0.999342 -0.0362773 12.5184 8.23088)" stroke="black" stroke-width="7"/>
<line y1="-3.5" x2="7.80088" y2="-3.5" transform="matrix(0.0333116 0.999445 0.999319 -0.0369128 32.2586 8.23088)" stroke="black" stroke-width="7"/>
<line y1="-3.5" x2="9.23758" y2="-3.5" transform="matrix(0.486612 0.873618 -0.858929 0.512094 12.2539 16.0274)" stroke="black" stroke-width="7"/>
<line y1="-3.5" x2="9.20012" y2="-3.5" transform="matrix(-0.48017 0.877176 0.854971 0.518676 32.5184 16.0274)" stroke="black" stroke-width="7"/>
<line y1="-3.5" x2="11.4324" y2="-3.5" transform="matrix(-0.716996 0.697078 -0.672356 -0.740228 39.0924 18.6263)" stroke="black" stroke-width="7"/>
<line y1="-3.5" x2="9.64729" y2="-3.5" transform="matrix(0.671512 0.740994 -0.717794 0.696256 3.79254 20.1309)" stroke="black" stroke-width="7"/>
<path d="M9.49646 41.9305L10.5067 30.4798L13.9358 31.3893L9.49646 41.9305Z" fill="black"/>
<path d="M35.526 42.3193L34.5359 30.8686L31.1748 31.7781L35.526 42.3193Z" fill="black"/>
<path d="M14.7767 43.3451L14.9028 31.8475L18.391 32.4718L14.7767 43.3451Z" fill="black"/>
<path d="M30.3505 43.7339L30.2269 32.2363L26.8079 32.8606L30.3505 43.7339Z" fill="black"/>
<path d="M46.3125 25.965C45.0497 26.9522 39.9601 27.1038 37.765 24.0985C35.5699 21.0932 37.1352 16.1164 38.3979 15.1292C39.6607 14.1419 40.1428 17.5181 42.3379 20.5234C44.533 23.5287 47.5753 24.9778 46.3125 25.965Z" fill="black"/>
<path d="M8.01225 14.334C8.94173 15.2819 9.66962 19.5599 7.56201 21.772C5.4544 23.984 1.34257 23.2577 0.4131 22.3098C-0.516375 21.3619 2.08847 20.5514 4.19608 18.3393C6.3037 16.1273 7.08278 13.3861 8.01225 14.334Z" fill="black"/>
<g clip-path="url(#clip0_5_185)">
<path d="M52.3315 0.949661C47.5518 0.949661 43.6631 4.57042 43.6631 9.02104C43.6631 10.577 44.139 12.084 45.0408 13.3868C44.87 15.3409 44.4123 16.7917 43.7478 17.4789C43.6599 17.5698 43.638 17.7088 43.6934 17.8236C43.7429 17.9262 43.8437 17.9892 43.9521 17.9892C43.9653 17.9892 43.9789 17.9883 43.9925 17.9862C44.1095 17.9692 46.8279 17.5641 48.7939 16.3905C49.9107 16.8566 51.1 17.0924 52.3315 17.0924C57.1113 17.0924 60.9999 13.4717 60.9999 9.02104C60.9999 4.57042 57.1113 0.949661 52.3315 0.949661Z" fill="black"/>
</g>
<g clip-path="url(#clip1_5_185)">
<path d="M52.3316 3.47404C48.968 3.47404 46.2316 6.02199 46.2316 9.1539C46.2316 10.2489 46.5665 11.3093 47.2011 12.2261C47.0809 13.6012 46.7588 14.6221 46.2912 15.1058C46.2293 15.1697 46.2139 15.2675 46.2529 15.3483C46.2877 15.4205 46.3587 15.4649 46.4349 15.4649C46.4443 15.4649 46.4538 15.4642 46.4634 15.4628C46.5457 15.4508 48.4587 15.1657 49.8422 14.3398C50.6281 14.6678 51.465 14.8338 52.3316 14.8338C55.6951 14.8338 58.4316 12.2858 58.4316 9.1539C58.4316 6.02199 55.6951 3.47404 52.3316 3.47404Z" fill="white"/>
</g>
<defs>
<clipPath id="clip0_5_185">
<rect width="17.3368" height="17.9364" fill="white" transform="translate(43.6631 0.501251)"/>
</clipPath>
<clipPath id="clip1_5_185">
<rect width="12.2" height="12.6219" fill="white" transform="translate(46.2316 3.15849)"/>
</clipPath>
</defs>
</svg>
