<svg width="414" height="93" viewBox="0 0 414 93" fill="none" xmlns="http://www.w3.org/2000/svg">
<rect width="414" height="92.7873" fill="black"/>
<rect x="8.89587" y="7.78632" width="295.617" height="75.268" fill="white"/>
<path d="M49.1606 30.3005L50.5806 29.8697C51.868 29.8697 52.5117 31.4854 52.5117 34.7167L54.2723 47.1573L54.4995 47.3727L61.0312 45.1108C61.902 45.1108 62.3753 45.7391 62.4511 46.9958C62.4511 47.9293 60.0467 49.0602 55.2379 50.3887L55.0107 50.4964V50.7118C55.0107 51.4658 56.2602 55.3972 58.7593 62.5062V62.6139C58.7593 63.296 58.1724 63.8705 56.9986 64.3372C55.9005 64.3372 55.1811 63.0986 54.8403 60.6212C53.9694 58.826 52.9092 55.864 51.6597 51.735H51.4325C46.4723 52.7044 43.9921 53.5302 43.9921 54.2124C41.2659 59.8134 39.2023 62.6139 37.8013 62.6139C37.0062 62.6139 36.5328 62.1292 36.3814 61.1598C36.3814 60.2981 37.3848 58.6106 39.3916 56.0973L40.3004 54.2124H38.8804L37.8013 54.4278C36.4003 54.1047 35.6998 53.4225 35.6998 52.3813C36.2678 51.1247 37.1008 50.4964 38.1989 50.4964L39.6188 51.0349C41.7392 51.0349 42.7994 50.2989 42.7994 48.8268C44.7305 44.5184 46.8509 38.343 49.1606 30.3005ZM49.6718 40.1022L46.3208 49.6885C49.4257 49.1141 50.9781 48.5576 50.9781 48.019C50.4102 42.7412 49.9747 40.1022 49.6718 40.1022Z" fill="black"/>
<path d="M81.3462 30.4082H81.9141C82.9744 30.4082 83.5802 31.0007 83.7316 32.1855C83.7316 33.2267 82.236 33.7473 79.2447 33.7473C74.4359 35.4707 71.1985 37.9839 69.5325 41.2871L69.1349 42.8489V43.172C69.1349 44.7518 70.2519 45.5417 72.4859 45.5417L78.7335 45.2185C82.9365 45.2185 85.7763 47.1573 87.253 51.0349L87.5938 52.9199C87.5938 56.6539 84.4132 60.0647 78.052 63.1524C76.1588 63.6551 74.4927 63.9962 73.0539 64.1757C69.1917 64.1757 66.4654 62.1112 64.8751 57.9823C64.4208 56.582 64.1936 55.1638 64.1936 53.7277C64.1936 53.2969 64.5533 52.8481 65.2727 52.3813H65.9543C67.1281 52.3813 67.715 53.7995 67.715 56.6359C68.6995 59.4364 70.2519 60.8366 72.3723 60.8366H73.9058C76.9728 60.8366 80.002 59.1492 82.9933 55.7742C83.7884 54.6971 84.186 53.5302 84.186 52.2736C84.186 50.5143 82.7282 49.2756 79.8127 48.5576H79.5855L72.1451 48.7191C68.0179 48.2524 65.9543 46.6367 65.9543 43.8721L65.7271 43.172C65.7271 39.4739 68.6427 35.8836 74.4738 32.4009C77.0107 31.0725 79.3015 30.4082 81.3462 30.4082Z" fill="black"/>
<path d="M107.193 30.4082H107.761C108.821 30.4082 109.427 31.0007 109.579 32.1855C109.579 33.2267 108.083 33.7473 105.092 33.7473C100.283 35.4707 97.0454 37.9839 95.3794 41.2871L94.9818 42.8489V43.172C94.9818 44.7518 96.0988 45.5417 98.3328 45.5417L104.58 45.2185C108.783 45.2185 111.623 47.1573 113.1 51.0349L113.441 52.9199C113.441 56.6539 110.26 60.0647 103.899 63.1524C102.006 63.6551 100.34 63.9962 98.9008 64.1757C95.0386 64.1757 92.3124 62.1112 90.7221 57.9823C90.2677 56.582 90.0405 55.1638 90.0405 53.7277C90.0405 53.2969 90.4002 52.8481 91.1197 52.3813H91.8012C92.975 52.3813 93.5619 53.7995 93.5619 56.6359C94.5464 59.4364 96.0988 60.8366 98.2192 60.8366H99.7527C102.82 60.8366 105.849 59.1492 108.84 55.7742C109.635 54.6971 110.033 53.5302 110.033 52.2736C110.033 50.5143 108.575 49.2756 105.66 48.5576H105.432L97.9921 48.7191C93.8648 48.2524 91.8012 46.6367 91.8012 43.8721L91.574 43.172C91.574 39.4739 94.4896 35.8836 100.321 32.4009C102.858 31.0725 105.148 30.4082 107.193 30.4082Z" fill="black"/>
<path d="M118.5 32.4548C119.409 32.4548 119.996 32.9036 120.261 33.8011L119.92 36.9786V38.0019C120.867 45.4339 121.454 51.2144 121.681 55.3434C122.097 59.1851 122.533 61.1059 122.987 61.1059C122.987 61.8599 122.324 62.3446 120.999 62.56C119.106 62.56 118.159 58.9337 118.159 51.6812L116.569 37.6787V37.194C116.569 34.0345 117.213 32.4548 118.5 32.4548Z" fill="black"/>
<path d="M142.739 21.8452C143.344 21.8452 143.893 22.4017 144.386 23.5147C144.386 24.3764 143.004 25.0945 140.239 25.669C136.756 27.5 134.049 30.6955 132.118 35.2552C130.224 39.815 129.278 44.3209 129.278 48.773C129.278 55.9178 131.701 60.5135 136.548 62.56L138.365 62.8831C142.417 62.8831 145.294 59.5261 146.998 52.8122L147.225 50.6041C147.225 47.7318 146.203 45.3262 144.158 43.3874H143.818C143.023 44.2491 141.432 47.283 139.047 52.489L137.797 53.2969C136.737 53.2969 136.131 52.6865 135.98 51.4658C139.577 43.3874 142.019 39.3483 143.306 39.3483H143.647C148.267 41.8974 150.576 45.6494 150.576 50.6041C150.576 56.2051 148.153 60.8725 143.306 64.6065C142.511 65.2528 140.902 65.7375 138.479 66.0606C133.897 66.0606 130.111 62.919 127.119 56.6359C126.324 53.9431 125.927 51.4837 125.927 49.2577V48.4499C125.927 40.7665 128.52 33.5139 133.708 26.6922C137.078 23.4609 140.088 21.8452 142.739 21.8452Z" fill="black"/>
<path d="M157.475 32.5625C159.255 33.101 162.644 39.6535 167.642 52.2197L168.494 53.1891V50.1732C168.494 42.1667 170.577 36.5119 174.742 33.2087C175.688 33.2087 176.275 33.8191 176.502 35.0398C173.663 39.061 172.243 42.3103 172.243 44.7877C172.053 44.7877 171.94 45.9186 171.902 48.1806V51.0349C171.902 53.5123 172.186 57.0488 172.754 61.6445C172.413 62.5421 171.807 62.9909 170.936 62.9909C170.065 62.9909 168.835 61.3034 167.245 57.9284C165.313 55.0202 163.193 50.6041 160.883 44.68H160.656V45.0031L160.997 51.8428C160.997 58.9158 159.577 63.4756 156.737 65.5221L155.317 65.6836C154.143 65.6836 153.159 64.6604 152.364 62.6139C152.629 61.5009 153.216 60.9443 154.124 60.9443H154.465L155.544 61.806H155.715C157.04 60.1186 157.703 56.9231 157.703 52.2197C157.703 47.4805 156.983 41.4845 155.544 34.232C155.544 33.2626 156.188 32.7061 157.475 32.5625Z" fill="black"/>
<path d="M194.032 22.9762H194.203C195.149 23.4429 195.622 23.9635 195.622 24.538L194.203 34.7705C194.203 38.5045 195.376 46.2418 197.724 57.9823L200.564 64.7142C200.564 65.181 200.166 65.7016 199.371 66.276H198.292C197.535 66.0606 196.399 63.8525 194.884 59.6518C193.9 56.2769 192.915 51.0708 191.931 44.0337H191.59C189.394 50.2091 187.841 53.4046 186.933 53.62L186.024 53.8354C185.229 53.8354 184.244 52.3634 183.07 49.4193H182.673C182.218 58.2875 181.329 62.7216 180.003 62.7216H179.833C178.621 62.7216 177.959 61.824 177.845 60.0288C178.792 56.582 179.265 52.9917 179.265 49.2577L177.732 34.986V33.9627C177.732 32.5984 178.243 31.9162 179.265 31.9162C180.742 31.9162 182.048 34.6628 183.184 40.1561C184.85 45.1467 185.872 47.8395 186.251 48.2344C187.122 46.9419 187.993 44.6441 188.864 41.3409C189.545 39.6535 190.208 37.0145 190.852 33.4242L190.624 33.2626L190.852 32.4009V32.0778C191.192 26.01 192.253 22.9762 194.032 22.9762Z" fill="black"/>
<path d="M219.396 31.2161C220.077 31.2161 220.551 31.7726 220.816 32.8856C220.816 33.5319 219.623 34.4295 217.238 35.5784C214.284 38.0198 212.088 42.2206 210.649 48.1806V49.15C213.943 47.6061 216.31 46.6726 217.749 46.3495C218.203 46.3495 218.752 46.7265 219.396 47.4805V48.5037C219.396 48.8987 217.73 49.6885 214.398 50.8734C211.899 52.1659 210.649 52.9019 210.649 53.0814V53.5661C210.649 55.5767 212.012 57.3181 214.739 58.7901L216.67 59.1133C217.919 59.1133 219.775 58.3772 222.236 56.9052H222.917C223.712 57.2642 224.11 57.7848 224.11 58.467V58.7901C221.762 61.1239 219.169 62.2907 216.329 62.2907C212.277 62.2907 209.324 59.7057 207.469 54.5355L203.89 55.2357C202.149 54.9843 201.278 54.4458 201.278 53.62C201.278 52.7942 201.789 52.2018 202.811 51.8428L204.118 52.0582C206.087 51.5196 207.071 51.1247 207.071 50.8734C207.071 44.7697 209.513 39.1149 214.398 33.9089C216.859 32.1137 218.525 31.2161 219.396 31.2161Z" fill="black"/>
<path d="M231.078 32.5625C232.858 33.101 236.247 39.6535 241.245 52.2197L242.097 53.1891V50.1732C242.097 42.1667 244.179 36.5119 248.344 33.2087C249.291 33.2087 249.878 33.8191 250.105 35.0398C247.265 39.061 245.845 42.3103 245.845 44.7877C245.656 44.7877 245.542 45.9186 245.505 48.1806V51.0349C245.505 53.5123 245.789 57.0488 246.357 61.6445C246.016 62.5421 245.41 62.9909 244.539 62.9909C243.668 62.9909 242.438 61.3034 240.847 57.9284C238.916 55.0202 236.796 50.6041 234.486 44.68H234.259V45.0031L234.6 51.8428C234.6 58.9158 233.18 63.4756 230.34 65.5221L228.92 65.6836C227.746 65.6836 226.762 64.6604 225.967 62.6139C226.232 61.5009 226.818 60.9443 227.727 60.9443H228.068L229.147 61.806H229.318C230.643 60.1186 231.305 56.9231 231.305 52.2197C231.305 47.4805 230.586 41.4845 229.147 34.232C229.147 33.2626 229.791 32.7061 231.078 32.5625Z" fill="black"/>
<path d="M262.353 28.3079L279.392 27.2846C279.884 27.2846 280.357 27.7334 280.812 28.631C280.812 29.9954 279.146 30.6775 275.814 30.6775L265.874 31.2161L265.647 31.3238C266.594 37.1761 267.067 48.2883 267.067 64.6604C266.878 66.2401 266.272 67.03 265.249 67.03C264.265 67.03 263.697 66.3119 263.546 64.8758V52.3813C263.546 44.0517 263.148 37.1043 262.353 31.5392C255.575 32.1496 252.186 32.8677 252.186 33.6934L251.675 33.9089C250.501 33.5857 249.914 33.0113 249.914 32.1855C249.914 30.2108 254.061 28.9182 262.353 28.3079Z" fill="black"/>
<path d="M344.12 16.3513V40.6499H348.956V16.3513H357.017V72.6725H348.956V48.1326H344.12V72.6725H336.058V23.834H334.786L335.634 16.3513H344.12Z" fill="white"/>
<path d="M382.887 65.5117C382.887 67.0672 382.519 68.435 381.784 69.6151C381.048 70.7952 380.03 71.6534 378.729 72.1898V72.6725H385.178L383.481 79.592H378.729C376.523 79.592 374.713 78.9752 373.298 77.7414C371.941 76.5614 371.149 74.979 370.922 72.9944H368.801C366.425 72.9944 364.502 72.3239 363.031 70.9829C361.56 69.5883 360.825 67.7645 360.825 65.5117V23.5122C360.825 21.2593 361.56 19.4624 363.031 18.1214C364.502 16.7268 366.425 16.0295 368.801 16.0295H374.911C377.286 16.0295 379.21 16.7268 380.681 18.1214C382.151 19.4624 382.887 21.2593 382.887 23.5122V65.5117ZM369.31 23.5122C369.027 23.5122 368.886 23.6463 368.886 23.9145V65.1094C368.886 65.3776 369.027 65.5117 369.31 65.5117H374.401C374.684 65.5117 374.826 65.3776 374.826 65.1094V23.9145C374.826 23.6463 374.684 23.5122 374.401 23.5122H369.31Z" fill="white"/>
</svg>
